<?xml version="1.0" encoding="UTF-8"?>
<svg id="Layer_1" data-name="Layer 1" xmlns="http://www.w3.org/2000/svg" viewBox="0 0 1019.03 374.95">
  <defs>
    <style>
      .cls-1 {
        fill: #000;
      }
    </style>
  </defs>
  <g>
    <path class="cls-1" d="M297.15,266.07c-14.2,0-26.85-3.05-37.95-9.15-11.1-6.1-19.85-14.85-26.25-26.25-6.4-11.4-9.6-24.8-9.6-40.2v-3c0-15.6,3.2-29.05,9.6-40.35,6.4-11.3,15.15-20,26.25-26.1,11.1-6.1,23.75-9.15,37.95-9.15s25.85,2.65,35.55,7.95c9.7,5.3,17.3,12.2,22.8,20.7,5.5,8.5,8.95,17.45,10.35,26.85l-17.7,3.6c-1-7.8-3.5-14.95-7.5-21.45-4-6.5-9.6-11.7-16.8-15.6-7.2-3.9-16.1-5.85-26.7-5.85s-20.1,2.45-28.5,7.35c-8.4,4.9-15.05,11.8-19.95,20.7-4.9,8.9-7.35,19.45-7.35,31.65v2.4c0,12.2,2.45,22.75,7.35,31.65,4.9,8.9,11.55,15.8,19.95,20.7,8.4,4.9,17.9,7.35,28.5,7.35,16,0,28.2-4.15,36.6-12.45,8.4-8.3,13.6-18.45,15.6-30.45l17.7,3.6c-1.8,9.4-5.55,18.35-11.25,26.85-5.7,8.5-13.4,15.4-23.1,20.7-9.7,5.3-21.55,7.95-35.55,7.95Z"/>
    <path class="cls-1" d="M458.55,266.07c-15,0-28.05-3.15-39.15-9.45-11.1-6.3-19.75-15.15-25.95-26.55-6.2-11.4-9.3-24.5-9.3-39.3v-3.6c0-15,3.1-28.15,9.3-39.45,6.2-11.3,14.75-20.1,25.65-26.4,10.9-6.3,23.35-9.45,37.35-9.45s25.65,2.85,36.15,8.55c10.5,5.7,18.75,13.9,24.75,24.6,6,10.7,9,23.45,9,38.25v9.6h-124.2c.6,18.2,6.15,32.25,16.65,42.15s23.75,14.85,39.75,14.85c13.6,0,24.15-3.1,31.65-9.3,7.5-6.2,13.25-13.8,17.25-22.8l16.2,7.2c-3,6.6-7.15,13.05-12.45,19.35-5.3,6.3-12.15,11.5-20.55,15.6-8.4,4.1-19.1,6.15-32.1,6.15ZM402.45,177.27h105.6c-.8-15.8-5.9-27.95-15.3-36.45-9.4-8.5-21.5-12.75-36.3-12.75s-26.7,4.25-36.3,12.75c-9.6,8.5-15.5,20.65-17.7,36.45Z"/>
    <path class="cls-1" d="M550.74,261.87V116.07h17.4v18.3h3.6c2.8-6.6,6.95-11.4,12.45-14.4,5.5-3,13.15-4.5,22.95-4.5h17.1v16.8h-19.2c-11,0-19.8,3.1-26.4,9.3-6.6,6.2-9.9,15.9-9.9,29.1v91.2h-18Z"/>
    <path class="cls-1" d="M704,261.87c-7.8,0-13.65-2-17.55-6-3.9-4-5.85-9.6-5.85-16.8v-106.8h-43.8v-16.2h43.8v-24.6h18v24.6h43v16.2h-43v104.4c0,6,3,9,9,9h34.2v16.2h-37.8Z"/>
    <path class="cls-1" d="M884.9,266.07c-10.2,0-19.45-1.75-27.75-5.25-8.3-3.5-14.85-8.65-19.65-15.45-4.8-6.8-7.2-15-7.2-24.6s2.4-17.9,7.2-24.3c4.8-6.4,11.3-11.2,19.5-14.4,8.2-3.2,17.3-4.8,27.3-4.8h53.4v-11.7c0-11.8-3.4-21-10.2-27.6-6.8-6.6-16.7-9.9-29.7-9.9s-22.95,3.15-30.45,9.45c-7.5,6.3-12.55,14.75-15.15,25.35l-17.4-5.1c2.4-8.6,6.2-16.35,11.4-23.25,5.2-6.9,12.1-12.4,20.7-16.5,8.6-4.1,18.9-6.15,30.9-6.15,18.4,0,32.65,4.8,42.75,14.4,10.1,9.6,15.15,23,15.15,40.2v70.8c0,6,2.8,9,8.4,9h14.1v15.6h-19.2c-6.2,0-11.1-1.85-14.7-5.55-3.6-3.7-5.4-8.75-5.4-15.15v-2.1h-3c-2.6,4.4-5.95,8.7-10.05,12.9-4.1,4.2-9.45,7.6-16.05,10.2-6.6,2.6-14.9,3.9-24.9,3.9ZM886.1,249.87c15.4,0,27.85-4.65,37.35-13.95,9.5-9.3,14.25-22.45,14.25-39.45v-3.6h-53.1c-10.4,0-19.05,2.25-25.95,6.75-6.9,4.5-10.35,11.45-10.35,20.85s3.55,16.65,10.65,21.75c7.1,5.1,16.15,7.65,27.15,7.65Z"/>
    <path class="cls-1" d="M1003.43,90.87c-4.4,0-8.1-1.5-11.1-4.5s-4.5-6.7-4.5-11.1,1.5-8.35,4.5-11.25c3-2.9,6.7-4.35,11.1-4.35s8.35,1.45,11.25,4.35c2.9,2.9,4.35,6.65,4.35,11.25s-1.45,8.1-4.35,11.1c-2.9,3-6.65,4.5-11.25,4.5ZM994.43,261.87V116.07h18v145.8h-18Z"/>
  </g>
  <path class="cls-1" d="M123.78,131.32c-1.58,1.75-2.97,2.61-5.01,2.73-2.04.12-3.95-.72-5.25-2.3l-42.54-58.47H0l61.6,84.76c7.21,9.93,18.39,15.62,30.66,15.62s23.45-5.69,30.66-15.62L226.88,15h33.9l-125.35,172.48,125.35,172.48h-33.9l-103.95-143.04c-7.22-9.93-18.39-15.62-30.66-15.62s-23.45,5.69-30.66,15.62L0,301.67h70.98l41.59-57.23.05.03.55-.86c1.1-1.72,2.9-2.78,4.94-2.9,2.02-.11,3.92.71,5.18,2.21l95.64,131.6.3.41h70.98l-136.25-187.48L290.22,0h-70.98"/>
</svg>